<svg width="28" height="21" viewBox="0 0 28 21" fill="none" xmlns="http://www.w3.org/2000/svg">
<path fill-rule="evenodd" clip-rule="evenodd" d="M24.7916 0H3.2084C1.43854 0 0 1.43854 0 3.2084V17.7916C0 19.5615 1.43854 21 3.2084 21H24.7916C26.5615 21 28 19.5615 28 17.7916V3.2084C28 1.43854 26.5615 0 24.7916 0ZM14 3.5C15.9297 3.5 17.5 5.07034 17.5 7C17.5 8.92966 15.9297 10.5 14 10.5C12.0703 10.5 10.5 8.92966 10.5 7C10.5 5.07034 12.0703 3.5 14 3.5ZM18.9584 17.5C19.4414 17.5 19.8334 17.108 19.8334 16.625V14.875C19.8334 13.1051 18.3949 11.6666 16.625 11.6666H11.375C9.60513 11.6666 8.1666 13.1051 8.1666 14.875V16.625C8.1666 17.108 8.55859 17.5 9.0416 17.5H18.9584Z" fill="#B3C0CD"/>
</svg>
